<?xml version="1.0" encoding="UTF-8"?>
<!DOCTYPE svg PUBLIC "-//W3C//DTD SVG 1.1//EN" "http://www.w3.org/Graphics/SVG/1.1/DTD/svg11.dtd">
<!-- Creator: CorelDRAW 2021.5 -->
<svg xmlns="http://www.w3.org/2000/svg" xml:space="preserve" width="9.84252in" height="9.84252in" version="1.1" style="shape-rendering:geometricPrecision; text-rendering:geometricPrecision; image-rendering:optimizeQuality; fill-rule:evenodd; clip-rule:evenodd"
viewBox="0 0 9842.52 9842.52"
  xmlns:xlink="http://www.w3.org/1999/xlink"
  xmlns:xodm="http://www.corel.com/coreldraw/odm/2003">
  <defs>
    <style type="text/css">
    <![CDATA[
    .fil0 {fill:#FCD34D;fill-rule:nonzero}
    ]]>
    </style>
  </defs>
  <g id="Layer_x0020_1">
    <metadata id="CorelCorpID_0Corel-Layer"/>
    <polygon class="fil0" points="5213.72,2546.91 5213.72,5062.78 4693.08,5062.78 4693.08,2546.91 "/>
    <path id="_1" class="fil0" d="M6379.28 3292.6c115.32,0 221.13,17.92 316.86,53.74 95.73,35.83 178.02,87.89 246.88,156.19 68.86,68.3 122.6,151.71 161.23,250.8 38.63,99.09 57.67,211.61 57.67,337.02 0,39.19 -1.68,71.09 -5.04,95.73 -3.36,24.63 -9.52,44.23 -18.48,58.78 -8.96,14.56 -20.71,24.63 -35.83,30.23 -15.11,5.6 -34.71,8.4 -58.22,8.4l-1004.33 0c16.8,146.11 61.02,251.92 132.68,317.98 71.66,65.5 164.03,98.53 277.11,98.53 60.46,0 112.53,-7.28 156.19,-21.83 43.67,-14.56 82.85,-30.79 117,-49.26 34.15,-17.91 65.5,-34.15 94.05,-48.7 28.55,-14.56 58.22,-21.83 89.57,-21.83 41.43,0 72.78,15.68 94.05,46.47l151.15 190.34c-53.74,60.46 -111.41,110.29 -173.55,147.8 -62.14,38.07 -125.96,68.3 -191.46,89.57 -65.5,21.28 -131,36.39 -196.5,44.79 -65.5,8.4 -128.2,12.31 -187.54,12.31 -122.04,0 -236.25,-20.15 -343.17,-59.9 -106.93,-39.74 -200.42,-98.53 -280.47,-176.9 -80.06,-78.94 -143.32,-176.35 -189.78,-292.79 -46.46,-116.44 -69.98,-251.92 -69.98,-406.99 0,-116.44 20.15,-226.73 59.9,-330.86 39.74,-104.13 96.85,-195.38 171.31,-274.31 74.46,-78.38 164.59,-140.52 270.39,-186.43 105.81,-45.91 225.05,-68.86 358.29,-68.86zm10.07 359.41c-99.65,0 -177.46,27.99 -233.45,84.54 -55.98,56.54 -92.93,138.28 -110.84,244.64l649.96 0c0,-41.43 -5.04,-81.73 -15.67,-120.92 -10.64,-39.19 -27.99,-74.46 -52.07,-105.25 -24.07,-30.79 -55.98,-55.42 -95.17,-74.46 -39.19,-19.04 -86.77,-28.55 -142.76,-28.55z"/>
    <path id="_2" class="fil0" d="M7776.6 4161.45l-560.94 -841.98 500.48 0c36.95,0 64.38,5.04 81.74,14.56 17.35,9.52 32.47,25.19 45.91,47.58l310.7 516.16c6.72,-20.15 15.11,-39.75 25.19,-58.78 10.07,-19.04 21.27,-39.19 33.59,-60.46l221.69 -388.52c14.56,-25.75 30.79,-43.67 48.7,-54.3 17.91,-10.63 39.75,-16.23 65.5,-16.23l476.97 0 -560.95 818.46 584.46 924.83 -500.48 0c-36.95,0 -66.62,-8.96 -89.01,-26.87 -22.39,-17.92 -40.87,-39.19 -55.43,-63.82l-310.7 -534.63c-5.6,19.04 -12.32,36.95 -20.16,53.74 -7.83,16.8 -16.23,32.47 -25.19,47.02l-255.28 433.87c-13.43,23.51 -31.35,44.23 -53.74,62.7 -22.39,18.48 -50.38,27.99 -83.97,27.99l-463.54 0 584.46 -901.32z"/>
    <path class="fil0" d="M1215.36 7201.34l-33.41 -27.16c-171.43,-139.37 -197.54,-392.91 -58.11,-564.3l3309.85 -4068.89 35.88 29.15c171.52,139.43 197.54,393.13 57.95,564.52l-3312.16 4066.67z"/>
  </g>
</svg>
